<svg width="700" height="700" viewBox="0 0 700 700" fill="none" xmlns="http://www.w3.org/2000/svg">
  <style>
    path { fill: #000; }
    @media (prefers-color-scheme: dark) {
      path { fill: #fff; }
    }
  </style>
<rect width="700" height="700"/>
<path d="M432.721 189.162L435.603 177.633C435.603 170.715 431.952 165.719 424.65 162.645C417.733 159.186 410.815 157.457 403.898 157.457C387.757 157.457 367.774 162.645 343.947 173.021C320.121 183.397 299.176 195.887 281.114 210.49C263.052 224.709 253.829 236.815 253.445 246.807C253.445 256.798 258.248 266.022 267.856 274.476C277.848 282.931 288.608 289.848 300.137 295.228C312.05 300.609 322.811 307.526 332.418 315.981C342.41 324.051 347.406 333.082 347.406 343.074C347.406 352.681 344.332 361.904 338.183 370.743C332.418 379.582 325.309 387.46 316.854 394.378C308.4 400.911 300.137 407.636 292.067 414.554C271.699 431.463 261.515 450.294 261.515 471.046C261.515 484.496 267.087 496.217 278.232 506.209C289.761 515.817 302.827 520.62 317.431 520.62C332.418 520.62 347.022 518.315 361.241 513.703C375.46 508.707 388.91 501.213 401.592 491.221C418.501 477.387 435.603 461.246 452.896 442.8C455.586 440.11 458.277 438.765 460.967 438.765C463.657 438.765 465.963 440.11 467.884 442.8C469.806 445.49 470.766 448.372 470.766 451.446C470.766 459.132 463.849 470.854 450.014 486.61C436.564 502.366 419.654 518.315 399.286 534.455C379.303 550.596 355.861 564.815 328.96 577.112C302.059 589.41 278.04 595.559 256.903 595.559C235.767 595.559 218.666 590.179 205.599 579.418C192.533 568.658 186 554.439 186 536.761C186 518.699 190.996 501.213 200.988 484.304C210.979 467.395 221.74 453.56 233.269 442.8C245.182 432.039 256.135 421.471 266.127 411.095C276.118 400.719 281.114 392.264 281.114 385.731C281.114 378.814 276.31 372.281 266.703 366.132C257.095 359.599 246.527 354.411 234.998 350.568C223.469 346.34 212.901 339.615 203.293 330.392C193.686 321.169 188.882 310.024 188.882 296.958C188.882 274.284 200.988 250.842 225.199 226.631C249.41 202.036 277.848 181.284 310.513 164.374C343.179 147.081 374.883 132.862 405.627 121.717C436.371 110.572 458.469 105 471.919 105C485.754 105 496.13 108.074 503.047 114.223C510.349 120.372 514 128.058 514 137.281C514 150.732 504.008 163.606 484.025 175.903C464.041 187.817 450.398 193.773 443.097 193.773C436.179 193.389 432.721 191.852 432.721 189.162Z" fill="black"/>
</svg>