<svg width="24" height="24" viewBox="0 0 24 24" fill="none" xmlns="http://www.w3.org/2000/svg">
<path fill-rule="evenodd" clip-rule="evenodd" d="M15.4945 0.7045C14.6865 0.5965 13.535 0.5 11.9995 0.5C10.4645 0.5 9.3135 0.5965 8.5055 0.7045L8.5555 0.8195C8.6725 1.0845 8.846 1.473 9.072 1.961C9.68511 3.28262 10.3325 4.58806 11.0135 5.876L11.0835 6.0075C11.6945 5.99713 12.3055 5.99713 12.9165 6.0075L12.9865 5.876C13.6675 4.58806 14.3149 3.28262 14.928 1.961C15.1212 1.54421 15.3103 1.12535 15.4945 0.7045ZM1.9175 8.122C1.6495 7.731 1.59 7.235 1.79 6.805C3.425 3.294 7 1 7 1C7 1 8.6665 4.974 11.3275 9.53C10.1777 9.63328 9.06726 10.0006 8.08267 10.6033C7.09808 11.2061 6.26592 12.028 5.651 13.005C4.3267 11.4401 3.08034 9.81038 1.9175 8.122ZM18.349 13.0055C19.6733 11.4404 20.9192 9.81055 22.082 8.122C22.35 7.731 22.4095 7.235 22.2095 6.805C20.575 3.294 16.9995 1 16.9995 1C16.9995 1 15.3335 4.974 12.6725 9.53C13.8222 9.63336 14.9326 10.0007 15.9171 10.6034C16.9016 11.2062 17.7336 12.028 18.3485 13.005M12 10.75C8.548 10.75 5.75 13.548 5.75 17C5.75 20.452 8.548 23.25 12 23.25C15.452 23.25 18.25 20.452 18.25 17C18.25 13.548 15.452 10.75 12 10.75ZM12.555 13.82L13.31 15.276L14.92 15.593C15.0284 15.6144 15.1291 15.664 15.2121 15.737C15.295 15.81 15.3571 15.9036 15.392 16.0084C15.427 16.1132 15.4336 16.2253 15.4111 16.3335C15.3886 16.4416 15.3378 16.5419 15.264 16.624L14.12 17.8965L14.3295 19.594C14.3434 19.7062 14.3266 19.82 14.2809 19.9234C14.2352 20.0268 14.1624 20.1159 14.0701 20.1812C13.9778 20.2464 13.8695 20.2854 13.7568 20.294C13.6441 20.3026 13.5311 20.2805 13.43 20.23L12 19.516L10.57 20.23C10.4689 20.2805 10.3559 20.3026 10.2432 20.294C10.1305 20.2854 10.0222 20.2464 9.92993 20.1812C9.83763 20.1159 9.76476 20.0268 9.71907 19.9234C9.67339 19.82 9.6566 19.7062 9.6705 19.594L9.88 17.8965L8.736 16.624C8.66217 16.5419 8.61142 16.4416 8.58893 16.3335C8.56644 16.2253 8.57301 16.1132 8.60797 16.0084C8.64293 15.9036 8.70503 15.81 8.78794 15.737C8.87086 15.664 8.97163 15.6144 9.08 15.593L10.69 15.276L11.445 13.8195C11.4977 13.7178 11.5773 13.6325 11.6752 13.5729C11.7731 13.5134 11.8854 13.4819 12 13.4819C12.1146 13.4819 12.2269 13.5134 12.3248 13.5729C12.4227 13.6325 12.5023 13.7183 12.555 13.82Z" fill="black"/>
</svg>
