<svg width="40" height="40" viewBox="0 0 40 40" fill="none" xmlns="http://www.w3.org/2000/svg">
<circle opacity="0.2" cx="20" cy="20" r="19.7" fill="#160619" stroke="white" stroke-width="0.6"/>
<g clip-path="url(#clip0_31_2691)">
<path d="M20.6746 24.1312V21.8875C20.6746 21.8125 20.6809 21.7437 20.6871 21.675C20.3434 21.85 19.9496 21.9437 19.5371 21.9437C18.0871 21.9437 16.9059 20.7625 16.9059 19.3125C16.9059 17.8625 18.0871 16.6875 19.5371 16.6875C20.9871 16.6875 22.1621 17.8625 22.1621 19.3125C22.1621 19.575 22.1246 19.825 22.0496 20.0625L27.1809 17.925C27.2746 17.8812 27.3746 17.85 27.4746 17.8312C26.7746 14.0875 23.4871 11.25 19.5434 11.25C15.0934 11.25 11.4746 14.8687 11.4746 19.3187C11.4746 23.4 14.5184 26.7875 18.4621 27.3125C18.4559 27.2125 18.4496 27.1125 18.4496 27.0125C18.4496 25.625 19.3996 24.4687 20.6746 24.1312Z" fill="#D03FC2"/>
<circle cx="19.5" cy="19.4004" r="4" fill="#160619"/>
<path d="M29.0787 17.8883L29.0767 17.8869C28.4865 17.4948 27.7399 17.4213 27.0829 17.6949L27.0822 17.6951L21.7333 19.9256C21.7332 19.9257 21.733 19.9257 21.7328 19.9258C21.7327 19.9259 21.7326 19.9259 21.7324 19.926C20.9394 20.2565 20.4252 21.031 20.4252 21.8872V23.9305C19.1314 24.3575 18.2002 25.5802 18.2002 27.0123C18.2002 28.7988 19.651 30.25 21.4376 30.25C22.8351 30.25 24.033 29.3633 24.487 28.1182C25.0732 28.7121 25.8868 29.0812 26.7879 29.0812C28.5682 29.0812 30.0079 27.6323 30.0249 25.864L30.025 25.8568V25.8496V25.8496V25.8496V25.8496V25.8496V25.8496V25.8495V25.8495V25.8495V25.8495V25.8495V25.8495V25.8495V25.8495V25.8494V25.8494V25.8494V25.8494V25.8494V25.8494V25.8494V25.8494V25.8493V25.8493V25.8493V25.8493V25.8493V25.8493V25.8493V25.8492V25.8492V25.8492V25.8492V25.8492V25.8492V25.8491V25.8491V25.8491V25.8491V25.8491V25.8491V25.8491V25.849V25.849V25.849V25.849V25.849V25.849V25.8489V25.8489V25.8489V25.8489V25.8489V25.8488V25.8488V25.8488V25.8488V25.8488V25.8488V25.8487V25.8487V25.8487V25.8487V25.8487V25.8486V25.8486V25.8486V25.8486V25.8486V25.8485V25.8485V25.8485V25.8485V25.8485V25.8484V25.8484V25.8484V25.8484V25.8484V25.8483V25.8483V25.8483V25.8483V25.8483V25.8482V25.8482V25.8482V25.8482V25.8481V25.8481V25.8481V25.8481V25.8481V25.848V25.848V25.848V25.848V25.8479V25.8479V25.8479V25.8479V25.8479V25.8478V25.8478V25.8478V25.8478V25.8477V25.8477V25.8477V25.8477V25.8476V25.8476V25.8476V25.8476V25.8475V25.8475V25.8475V25.8475V25.8474V25.8474V25.8474V25.8474V25.8473V25.8473V25.8473V25.8473V25.8472V25.8472V25.8472V25.8472V25.8471V25.8471V25.8471V25.8471V25.847V25.847V25.847V25.847V25.8469V25.8469V25.8469V25.8469V25.8468V25.8468V25.8468V25.8467V25.8467V25.8467V25.8467V25.8466V25.8466V25.8466V25.8466V25.8465V25.8465V25.8465V25.8465V25.8464V25.8464V25.8464V25.8463V25.8463V25.8463V25.8463V25.8462V25.8462V25.8462V25.8461V25.8461V25.8461V25.8461V25.846V25.846V25.846V25.8459V25.8459V25.8459V25.8459V25.8458V25.8458V25.8458V25.8457V25.8457V25.8457V25.8457V25.8456V25.8456V25.8456V25.8455V25.8455V25.8455V25.8455V25.8454V25.8454V25.8454V25.8453V25.8453V25.8453V25.8453V25.8452V25.8452V25.8452V25.8451V25.8451V25.8451V25.845V25.845V25.845V25.845V25.8449V25.8449V25.8449V25.8448V25.8448V25.8448V25.8448V25.8447V25.8447V25.8447V25.8446V25.8446V25.8446V25.8445V25.8445V25.8445V25.8445V25.8444V25.8444V25.8444V25.8443V25.8443V25.8443V25.8442V25.8442V25.8442V25.8441V25.8441V25.8441V25.8441V25.844V25.844V25.844V25.8439V25.8439V25.8439V25.8438V25.8438V25.8438V25.8438V25.8437V25.8437V25.8437V25.8436V25.8436V25.8436V25.8435V25.8435V25.8435V25.8435V25.8434V25.8434V25.8434V25.8433V25.8433V25.8433V25.8432V25.8432V25.8432V25.8431V25.8431V25.8431V25.8431V25.843V25.843V25.843V25.8429V25.8429V25.8429V25.8428V25.8428V25.8428V25.8428V25.8427V25.8427V25.8427V25.8426V25.8426V25.8426V25.8425V25.8425V25.8425V25.8425V25.8424V25.8424V25.8424V25.8423V25.8423V25.8423V25.8422V25.8422V25.8422V25.8422V25.8421V25.8421V25.8421V25.842V25.842V25.842V25.8419V25.8419V25.8419V25.8419V25.8418V25.8418V25.8418V25.8417V25.8417V25.8417V25.8417V25.8416V25.8416V25.8416V25.8415V25.8415V25.8415V25.8414V25.8414V25.8414V25.8414V25.8413V25.8413V25.8413V25.8412V25.8412V25.8412V25.8412V25.8411V25.8411V25.8411V25.841V25.841V25.841V25.841V25.8409V25.8409V25.8409V25.8408V25.8408V25.8408V25.8408V25.8407V25.8407V25.8407V25.8407V25.8406V25.8406V25.8406V25.8405V25.8405V25.8405V25.8405V25.8404V25.8404V25.8404V25.8404V25.8403V25.8403V25.8403V25.8402V25.8402V25.8402V25.8402V25.8401V25.8401V25.8401V25.8401V25.84V25.84V25.84V25.84V25.8399V25.8399V25.8399V25.8399V25.8398V25.8398V25.8398V25.8398V25.8397V25.8397V25.8397V25.8397V25.8396V25.8396V25.8396V25.8396V25.8395V25.8395V25.8395V25.8395V25.8394V25.8394V25.8394V25.8394V25.8393V25.8393V25.8393V25.8393V25.8392V25.8392V25.8392V25.8392V25.8391V25.8391V25.8391V25.8391V25.8391V25.839V25.839V25.839V25.839V25.8389V25.8389V25.8389V25.8389V25.8389V25.8388V25.8388V25.8388V25.8388V25.8387V25.8387V25.8387V25.8387V25.8387V25.8386V25.8386V25.8386V25.8386V25.8386V25.8385V25.8385V25.8385V25.8385V25.8385V25.8384V25.8384V25.8384V25.8384V25.8384V25.8383V25.8383V25.8383V25.8383V25.8383V25.8383V25.8382V25.8382V25.8382V25.8382V25.8382V25.8381V25.8381V25.8381V25.8381V25.8381V25.8381V25.838V25.838V25.838V25.838V25.838V25.838V25.8379V25.8379V25.8379V25.8379V25.8379V25.8379V25.8378V25.8378V25.8378V25.8378V25.8378V25.8378V25.8378V25.8377V25.8377V25.8377V25.8377V25.8377V25.8377V25.8377V25.8376V25.8376V25.8376V25.8376V25.8376V25.8376V25.8376V25.8375V25.8375V25.8375V25.8375V25.8375V25.8375V25.8375V25.8375V25.8375V25.8374V25.8374V25.8374V25.8374V21.7788V21.778V19.6564C30.025 18.9465 29.6702 18.2826 29.0787 17.8883Z" fill="#D03FC2" stroke="#160619" stroke-width="3"/>
</g>
<defs>
<clipPath id="clip0_31_2691">
<rect width="20" height="20" fill="white" transform="translate(10 10)"/>
</clipPath>
</defs>
</svg>
