<svg width="20" height="22" viewBox="0 0 20 22" fill="none" xmlns="http://www.w3.org/2000/svg">
<path d="M18.2875 3.66667H15.3037C15.0804 2.63213 14.4893 1.70257 13.6302 1.03466C12.7711 0.366749 11.6965 0.00133331 10.5875 0L8.6625 0C7.5535 0.00133331 6.47889 0.366749 5.6198 1.03466C4.7607 1.70257 4.16964 2.63213 3.94625 3.66667H0.9625C0.707229 3.66667 0.462413 3.76324 0.28191 3.93515C0.101406 4.10706 0 4.34022 0 4.58333C0 4.82645 0.101406 5.05961 0.28191 5.23151C0.462413 5.40342 0.707229 5.5 0.9625 5.5H1.925V17.4167C1.92653 18.6318 2.43405 19.7967 3.33624 20.656C4.23842 21.5152 5.46161 21.9985 6.7375 22H12.5125C13.7884 21.9985 15.0116 21.5152 15.9138 20.656C16.816 19.7967 17.3235 18.6318 17.325 17.4167V5.5H18.2875C18.5428 5.5 18.7876 5.40342 18.9681 5.23151C19.1486 5.05961 19.25 4.82645 19.25 4.58333C19.25 4.34022 19.1486 4.10706 18.9681 3.93515C18.7876 3.76324 18.5428 3.66667 18.2875 3.66667ZM8.6625 1.83333H10.5875C11.1845 1.83403 11.7667 2.01059 12.2542 2.33882C12.7417 2.66705 13.1106 3.13087 13.3104 3.66667H5.93959C6.13939 3.13087 6.50833 2.66705 6.99582 2.33882C7.48331 2.01059 8.06549 1.83403 8.6625 1.83333ZM15.4 17.4167C15.4 18.146 15.0958 18.8455 14.5543 19.3612C14.0128 19.8769 13.2783 20.1667 12.5125 20.1667H6.7375C5.97169 20.1667 5.23724 19.8769 4.69573 19.3612C4.15422 18.8455 3.85 18.146 3.85 17.4167V5.5H15.4V17.4167Z" fill="white"/>
<path d="M7.5625 16.5C7.74484 16.5 7.9197 16.4095 8.04864 16.2483C8.17757 16.0871 8.25 15.8685 8.25 15.6406V10.4844C8.25 10.2565 8.17757 10.0379 8.04864 9.87671C7.9197 9.71554 7.74484 9.625 7.5625 9.625C7.38016 9.625 7.2053 9.71554 7.07636 9.87671C6.94743 10.0379 6.875 10.2565 6.875 10.4844V15.6406C6.875 15.8685 6.94743 16.0871 7.07636 16.2483C7.2053 16.4095 7.38016 16.5 7.5625 16.5Z" fill="white"/>
<path d="M11.6875 16.5C11.8698 16.5 12.0447 16.4095 12.1736 16.2483C12.3026 16.0871 12.375 15.8685 12.375 15.6406V10.4844C12.375 10.2565 12.3026 10.0379 12.1736 9.87671C12.0447 9.71554 11.8698 9.625 11.6875 9.625C11.5052 9.625 11.3303 9.71554 11.2014 9.87671C11.0724 10.0379 11 10.2565 11 10.4844V15.6406C11 15.8685 11.0724 16.0871 11.2014 16.2483C11.3303 16.4095 11.5052 16.5 11.6875 16.5Z" fill="white"/>
</svg>
