<svg width="40" height="40" viewBox="0 0 40 40" fill="none" xmlns="http://www.w3.org/2000/svg">
<circle opacity="0.2" cx="20" cy="20" r="19.7" fill="#160619" stroke="white" stroke-width="0.6"/>
<path d="M26.6296 14.4569C26.2465 14.0737 25.7917 13.7697 25.2911 13.5622C24.7905 13.3548 24.254 13.248 23.7121 13.248C23.1702 13.248 22.6337 13.3548 22.1331 13.5622C21.6325 13.7697 21.1777 14.0737 20.7946 14.4569L19.9996 15.2519L19.2046 14.4569C18.4308 13.6831 17.3814 13.2484 16.2871 13.2484C15.1928 13.2484 14.1434 13.6831 13.3696 14.4569C12.5958 15.2307 12.1611 16.2801 12.1611 17.3744C12.1611 18.4687 12.5958 19.5181 13.3696 20.2919L14.1646 21.0869L19.9996 26.9219L25.8346 21.0869L26.6296 20.2919C27.0128 19.9088 27.3169 19.454 27.5243 18.9534C27.7317 18.4528 27.8385 17.9163 27.8385 17.3744C27.8385 16.8326 27.7317 16.296 27.5243 15.7954C27.3169 15.2948 27.0128 14.84 26.6296 14.4569Z" fill="#D03FC2"/>
</svg>
