<svg width="40" height="40" viewBox="0 0 40 40" fill="none" xmlns="http://www.w3.org/2000/svg">
<circle opacity="0.2" cx="20" cy="20" r="19.7" fill="#160619" stroke="white" stroke-width="0.6"/>
<g clip-path="url(#clip0_31_2667)" filter="url(#filter0_d_31_2667)">
<path d="M29.5543 14.1719C29.0918 14.1719 28.7168 14.5396 28.7168 14.9933V25.0063C28.7168 25.4599 29.0918 25.8277 29.5543 25.8277C30.0168 25.8277 30.3918 25.4599 30.3918 25.0063V14.9933C30.3918 14.5396 30.0168 14.1719 29.5543 14.1719Z" fill="#D03FC2"/>
<path d="M10.8375 14.1721C10.375 14.1721 10 14.5399 10 14.9935V25.0065C10 25.4602 10.375 25.8279 10.8375 25.8279C11.3 25.8279 11.675 25.4602 11.675 25.0065V14.9935C11.675 14.5399 11.3 14.1721 10.8375 14.1721Z" fill="#D03FC2"/>
<path d="M26.5767 12.9209H13.815C13.3525 12.9209 12.9775 13.2886 12.9775 13.7423V26.2586C12.9775 26.7122 13.3525 27.08 13.815 27.08H26.5767C27.0393 27.08 27.4142 26.7122 27.4142 26.2586V13.7423C27.4142 13.2886 27.0392 12.9209 26.5767 12.9209ZM23.9227 18.2817C23.7159 18.6875 23.2129 18.8518 22.7991 18.6491L21.4588 17.9918V21.6692C21.4588 23.0423 20.3198 24.1594 18.9197 24.1594C17.5197 24.1595 16.3807 23.0424 16.3807 21.6693C16.3807 20.2962 17.5197 19.1791 18.9197 19.1791H19.7838V16.6628C19.7838 16.0523 20.44 15.6556 20.9958 15.9281L23.5482 17.1797C23.9618 17.3826 24.1295 17.8759 23.9227 18.2817Z" fill="#D03FC2"/>
</g>
<defs>
<filter id="filter0_d_31_2667" x="2" y="6" width="36.3921" height="36" filterUnits="userSpaceOnUse" color-interpolation-filters="sRGB">
<feFlood flood-opacity="0" result="BackgroundImageFix"/>
<feColorMatrix in="SourceAlpha" type="matrix" values="0 0 0 0 0 0 0 0 0 0 0 0 0 0 0 0 0 0 127 0" result="hardAlpha"/>
<feOffset dy="4"/>
<feGaussianBlur stdDeviation="4"/>
<feComposite in2="hardAlpha" operator="out"/>
<feColorMatrix type="matrix" values="0 0 0 0 0 0 0 0 0 0 0 0 0 0 0 0 0 0 0.5 0"/>
<feBlend mode="normal" in2="BackgroundImageFix" result="effect1_dropShadow_31_2667"/>
<feBlend mode="normal" in="SourceGraphic" in2="effect1_dropShadow_31_2667" result="shape"/>
</filter>
<clipPath id="clip0_31_2667">
<rect width="20.3922" height="20" fill="white" transform="translate(10 10)"/>
</clipPath>
</defs>
</svg>
