<svg width="40" height="40" viewBox="0 0 40 40" fill="none" xmlns="http://www.w3.org/2000/svg">
<circle opacity="0.2" cx="20" cy="20" r="19.7" fill="#160619" stroke="white" stroke-width="0.6"/>
<path d="M21.6667 15H13.3333C12.875 15 12.5 15.375 12.5 15.8333C12.5 16.2917 12.875 16.6667 13.3333 16.6667H21.6667C22.125 16.6667 22.5 16.2917 22.5 15.8333C22.5 15.375 22.125 15 21.6667 15ZM21.6667 18.3333H13.3333C12.875 18.3333 12.5 18.7083 12.5 19.1667C12.5 19.625 12.875 20 13.3333 20H21.6667C22.125 20 22.5 19.625 22.5 19.1667C22.5 18.7083 22.125 18.3333 21.6667 18.3333ZM13.3333 23.3333H18.3333C18.7917 23.3333 19.1667 22.9583 19.1667 22.5C19.1667 22.0417 18.7917 21.6667 18.3333 21.6667H13.3333C12.875 21.6667 12.5 22.0417 12.5 22.5C12.5 22.9583 12.875 23.3333 13.3333 23.3333ZM25.8333 15C24.9167 15 24.1667 15.75 24.1667 16.6667V21.8167C23.9083 21.725 23.625 21.6667 23.3333 21.6667C21.8 21.6667 20.6 23.0333 20.875 24.6167C21.05 25.625 21.875 26.45 22.8833 26.625C24.4667 26.9 25.8333 25.7 25.8333 24.1667V16.6667H27.5C27.9583 16.6667 28.3333 16.2917 28.3333 15.8333C28.3333 15.375 27.9583 15 27.5 15H25.8333Z" fill="#D03FC2"/>
</svg>
