<svg width="40" height="40" viewBox="0 0 40 40" fill="none" xmlns="http://www.w3.org/2000/svg">
<circle opacity="0.2" cx="20" cy="20" r="19.7" fill="#160619" stroke="white" stroke-width="0.6"/>
<path d="M27.2036 21.2725L26.8749 21.0825C26.4836 20.8569 26.2499 20.4519 26.2499 20C26.2499 19.5481 26.4836 19.1431 26.8749 18.9175L27.2036 18.7275C28.1011 18.2087 28.408 17.0638 27.8899 16.1663L27.2649 15.0837C26.748 14.1881 25.5986 13.8806 24.7036 14.3975L24.3749 14.5869C23.9836 14.8131 23.5155 14.8131 23.1249 14.5869C22.7336 14.3606 22.4999 13.9562 22.4999 13.5044V13.125C22.4999 12.0912 21.6586 11.25 20.6249 11.25H19.3749C18.3411 11.25 17.4999 12.0912 17.4999 13.125V13.505C17.4999 13.9569 17.2661 14.3613 16.8749 14.5875C16.4836 14.8131 16.0161 14.8138 15.6249 14.5875L15.2961 14.3975C14.4011 13.8806 13.2518 14.1881 12.7343 15.0837L12.1093 16.1663C11.5911 17.0638 11.898 18.2094 12.7955 18.7275L13.1249 18.9175C13.5161 19.1431 13.7499 19.5481 13.7499 20C13.7499 20.4519 13.5161 20.8569 13.1249 21.0825L12.7961 21.2725C11.8986 21.7906 11.5918 22.9363 12.1099 23.8338L12.7349 24.9162C13.2524 25.8119 14.4018 26.1194 15.2961 25.6025L15.6249 25.4131C16.0161 25.1862 16.4836 25.1875 16.8749 25.4131C17.2661 25.6394 17.4999 26.0437 17.4999 26.4956V26.875C17.4999 27.9088 18.3411 28.75 19.3749 28.75H20.6249C21.6586 28.75 22.4999 27.9088 22.4999 26.875V26.495C22.4999 26.0431 22.7336 25.6388 23.1249 25.4125C23.5155 25.1869 23.9836 25.1862 24.3749 25.4125L24.7036 25.6025C25.5986 26.1188 26.748 25.8112 27.2649 24.9162L27.8899 23.8338C28.408 22.9363 28.1011 21.7906 27.2036 21.2725ZM19.9999 23.125C18.2768 23.125 16.8749 21.7231 16.8749 20C16.8749 18.2769 18.2768 16.875 19.9999 16.875C21.723 16.875 23.1249 18.2769 23.1249 20C23.1249 21.7231 21.723 23.125 19.9999 23.125Z" fill="#D03FC2"/>
</svg>
