<svg width="32" height="32" viewBox="0 0 32 32" fill="none" xmlns="http://www.w3.org/2000/svg">
<g clip-path="url(#clip0_31_2404)" filter="url(#filter0_d_31_2404)">
<g filter="url(#filter1_d_31_2404)">
<path d="M12.4473 20.5175C10.9357 20.5175 9.70605 21.7471 9.70605 23.2587C9.70605 24.7704 10.9357 26 12.4473 26C13.9589 26 15.1886 24.77 15.1886 23.2587C15.1886 21.7474 13.9589 20.5175 12.4473 20.5175ZM12.4473 24.322C11.8613 24.322 11.3844 23.8453 11.3844 23.259C11.3844 22.6727 11.8613 22.1961 12.4473 22.1961C13.0336 22.1961 13.5103 22.6727 13.5103 23.259C13.5103 23.8453 13.0336 24.322 12.4473 24.322Z" fill="white"/>
<path d="M22.4056 20.5175C20.8937 20.5175 19.6641 21.7472 19.6641 23.2587C19.6641 24.7704 20.8937 26 22.4056 26C23.9169 26 25.1469 24.7703 25.1469 23.2587C25.1469 21.7472 23.9169 20.5175 22.4056 20.5175ZM22.4056 24.3217C21.8193 24.3217 21.3424 23.8448 21.3424 23.2587C21.3424 22.6727 21.8193 22.1961 22.4056 22.1961C22.9916 22.1961 23.4685 22.6724 23.4685 23.2587C23.4685 23.8451 22.9919 24.3217 22.4056 24.3217Z" fill="white"/>
<path d="M11.2444 19.6786H24.3074C24.7712 19.6786 25.1465 19.303 25.1465 18.8395C25.1465 18.376 24.7709 18.0003 24.3074 18.0003H11.958L9.55545 3.26375C9.49784 2.91073 9.22315 2.63328 8.87098 2.57202L5.65417 2.01256C5.19625 1.93311 4.76298 2.23887 4.68353 2.69534C4.6038 3.15214 4.90984 3.58653 5.36631 3.66599L7.99483 4.12306L10.4161 18.9743C10.4824 19.3807 10.8329 19.6786 11.2444 19.6786Z" fill="white"/>
</g>
<path d="M27.1678 7.4367C27.0097 7.21991 26.758 7.0918 26.4898 7.0918H9.42676V8.77011H25.3387L23.6125 14.1407H10.6296V15.819H24.2243C24.5885 15.819 24.9116 15.5835 25.0232 15.2367L27.2889 8.18769C27.3709 7.93236 27.3258 7.65322 27.1678 7.4367Z" fill="white"/>
</g>
<defs>
<filter id="filter0_d_31_2404" x="0" y="0" width="32" height="32" filterUnits="userSpaceOnUse" color-interpolation-filters="sRGB">
<feFlood flood-opacity="0" result="BackgroundImageFix"/>
<feColorMatrix in="SourceAlpha" type="matrix" values="0 0 0 0 0 0 0 0 0 0 0 0 0 0 0 0 0 0 127 0" result="hardAlpha"/>
<feOffset dy="2"/>
<feGaussianBlur stdDeviation="2"/>
<feComposite in2="hardAlpha" operator="out"/>
<feColorMatrix type="matrix" values="0 0 0 0 0 0 0 0 0 0 0 0 0 0 0 0 0 0 0.25 0"/>
<feBlend mode="normal" in2="BackgroundImageFix" result="effect1_dropShadow_31_2404"/>
<feBlend mode="normal" in="SourceGraphic" in2="effect1_dropShadow_31_2404" result="shape"/>
</filter>
<filter id="filter1_d_31_2404" x="0.670898" y="-2" width="28.4761" height="32" filterUnits="userSpaceOnUse" color-interpolation-filters="sRGB">
<feFlood flood-opacity="0" result="BackgroundImageFix"/>
<feColorMatrix in="SourceAlpha" type="matrix" values="0 0 0 0 0 0 0 0 0 0 0 0 0 0 0 0 0 0 127 0" result="hardAlpha"/>
<feOffset/>
<feGaussianBlur stdDeviation="2"/>
<feComposite in2="hardAlpha" operator="out"/>
<feColorMatrix type="matrix" values="0 0 0 0 0 0 0 0 0 0 0 0 0 0 0 0 0 0 0.5 0"/>
<feBlend mode="normal" in2="BackgroundImageFix" result="effect1_dropShadow_31_2404"/>
<feBlend mode="normal" in="SourceGraphic" in2="effect1_dropShadow_31_2404" result="shape"/>
</filter>
<clipPath id="clip0_31_2404">
<rect width="24" height="24" fill="white" transform="translate(4 2)"/>
</clipPath>
</defs>
</svg>
