<svg width="19" height="14" viewBox="0 0 19 14" fill="none" xmlns="http://www.w3.org/2000/svg">
<path d="M14.1136 11.7929H4.59088L4.81263 10.2515H13.8919L14.1136 11.7929Z" fill="#FF7222"/>
<path d="M16.7045 4.7115L13.9006 10.3703H4.80387L2 4.7115L4.68825 5.478C4.65347 5.60095 4.63581 5.7281 4.63575 5.85588C4.63547 6.08613 4.69305 6.31277 4.8032 6.51497C4.91335 6.71718 5.07254 6.88846 5.26615 7.01309C5.45976 7.13773 5.68159 7.21172 5.91125 7.22826C6.14091 7.24481 6.37105 7.20338 6.58053 7.10778C6.79001 7.01219 6.97211 6.86549 7.11011 6.68117C7.2481 6.49684 7.33757 6.2808 7.3703 6.05288C7.40302 5.82496 7.37796 5.59247 7.2974 5.37676C7.21684 5.16105 7.08337 4.96905 6.90925 4.81838L9.35225 2L11.7952 4.81787C11.6213 4.96855 11.488 5.16051 11.4075 5.37613C11.3271 5.59175 11.3021 5.82413 11.3349 6.05192C11.3676 6.27972 11.4571 6.49563 11.595 6.67985C11.733 6.86406 11.915 7.01067 12.1243 7.10622C12.3337 7.20177 12.5637 7.24319 12.7933 7.22669C13.0228 7.21019 13.2445 7.13628 13.4381 7.01177C13.6316 6.88725 13.7908 6.71611 13.901 6.51406C14.0111 6.31201 14.0688 6.08551 14.0686 5.85538C14.0686 5.72761 14.051 5.60045 14.0162 5.4775L16.7045 4.7115Z" fill="#FFA826"/>
<path d="M14.1136 12.7929C14.4037 12.7929 14.6795 12.6669 14.8694 12.4477C15.0593 12.2285 15.1447 11.9376 15.1034 11.6505L14.9412 10.5226L17.6005 5.15548C17.7763 4.80084 17.7263 4.37594 17.4731 4.07175C17.2199 3.76756 16.8111 3.64132 16.4305 3.74978L13.7422 4.51578C13.2119 4.66689 12.904 5.21873 13.0539 5.74937C13.0637 5.7839 13.0686 5.81961 13.0686 5.85549V5.85608C13.0687 5.91871 13.053 5.98035 13.023 6.03534C12.993 6.09032 12.9497 6.13689 12.897 6.17078C12.8444 6.20466 12.784 6.22477 12.7216 6.22926C12.6591 6.23375 12.5965 6.22248 12.5395 6.19648C12.4826 6.17048 12.433 6.13058 12.3955 6.08045C12.3579 6.03032 12.3336 5.97156 12.3247 5.90957C12.3158 5.84758 12.3226 5.78435 12.3445 5.72567C12.3663 5.66699 12.4026 5.61475 12.45 5.57375C12.6505 5.40005 12.7738 5.1538 12.7927 4.88918C12.8116 4.62456 12.7246 4.36327 12.5508 4.16282L10.1078 1.34494C9.91788 1.12584 9.64218 0.999987 9.35221 1C9.06223 1.00001 8.78655 1.12589 8.59662 1.34501L6.15362 4.16338C5.9798 4.3639 5.89282 4.62528 5.91182 4.88996C5.93081 5.15464 6.05423 5.40092 6.25489 5.57456C6.30231 5.61559 6.33866 5.66788 6.3606 5.72663C6.38254 5.78537 6.38936 5.84868 6.38045 5.91075C6.37154 5.97282 6.34717 6.03166 6.30959 6.08186C6.27201 6.13205 6.22242 6.172 6.16537 6.19804C6.10832 6.22407 6.04565 6.23535 5.98311 6.23085C5.92056 6.22634 5.86015 6.20619 5.80743 6.17225C5.7547 6.13831 5.71135 6.09166 5.68135 6.0366C5.65135 5.98153 5.63567 5.91981 5.63575 5.8571L5.63575 5.85632C5.63577 5.82043 5.64073 5.78471 5.6505 5.75018C5.80059 5.21953 5.49278 4.66754 4.96245 4.51633L2.2742 3.74983C1.89356 3.6413 1.48472 3.76749 1.23147 4.07168C0.978224 4.37588 0.92823 4.80082 1.10396 5.15548L3.76333 10.5226L3.60107 11.6505C3.55976 11.9376 3.64516 12.2285 3.8351 12.4477C4.02504 12.6669 4.30081 12.7929 4.59088 12.7929H14.1136Z" stroke="#160619" stroke-width="2" stroke-linejoin="round"/>
<path d="M14.1136 11.8968H4.59082L4.81257 10.3555H13.8918L14.1136 11.8968Z" fill="#FF7222"/>
<path d="M16.7045 4.81502L13.9006 10.4738H4.80387L2 4.81502L4.68825 5.58152C4.65347 5.70446 4.63581 5.83162 4.63575 5.95939C4.63547 6.18965 4.69305 6.41629 4.8032 6.61849C4.91335 6.82069 5.07254 6.99198 5.26615 7.11661C5.45976 7.24124 5.68159 7.31523 5.91125 7.33178C6.14091 7.34832 6.37105 7.30689 6.58053 7.2113C6.79001 7.11571 6.97211 6.96901 7.11011 6.78468C7.2481 6.60036 7.33757 6.38431 7.3703 6.15639C7.40302 5.92847 7.37796 5.69598 7.2974 5.48028C7.21684 5.26457 7.08337 5.07256 6.90925 4.92189L9.35225 2.10352L11.7952 4.92139C11.6213 5.07207 11.488 5.26403 11.4075 5.47965C11.3271 5.69527 11.3021 5.92764 11.3349 6.15544C11.3676 6.38323 11.4571 6.59915 11.595 6.78336C11.733 6.96758 11.915 7.11419 12.1243 7.20974C12.3337 7.30528 12.5637 7.34671 12.7933 7.3302C13.0228 7.3137 13.2445 7.2398 13.4381 7.11528C13.6316 6.99077 13.7908 6.81963 13.901 6.61757C14.0111 6.41552 14.0688 6.18903 14.0686 5.95889C14.0686 5.83112 14.051 5.70397 14.0162 5.58102L16.7045 4.81502Z" fill="#FFA826"/>
</svg>
