<svg width="16" height="17" viewBox="0 0 16 17" fill="none" xmlns="http://www.w3.org/2000/svg">
<g id="campfire 1" clip-path="url(#clip0_31_2109)">
<g id="Group">
<path id="Vector" d="M6.98788 16.0056C5.29376 15.8409 3.57611 15.0174 2.72905 13.535C1.90552 12.0527 2.11729 10.1703 2.70552 8.5468L3.19964 9.95857C3.2467 10.0997 3.31729 10.2644 3.43493 10.335C3.62317 10.4527 3.88199 10.3586 4.02317 10.1703C4.14082 9.9821 4.16435 9.7468 4.14082 9.53504C4.07023 8.59386 3.52905 7.72327 3.50552 6.7821C3.48199 5.69974 4.16435 4.71151 5.0114 4.02915C5.03493 4.40562 5.12905 4.80562 5.2467 5.15857C5.29376 5.29974 5.38788 5.44092 5.52905 5.46445C5.62317 5.46445 5.71729 5.41739 5.78788 5.3468C6.49376 4.75857 6.91729 3.91151 7.08199 3.01739C7.15258 2.57033 7.15258 2.09974 7.05846 1.65268C7.03493 1.55857 6.8467 1.08798 6.89376 1.01739C6.96435 0.876213 7.36435 1.1821 7.45846 1.22915C9.01141 2.21739 10.0467 3.9821 10.0702 5.81739C10.0702 6.09974 10.1173 6.47621 10.3996 6.52327C10.5643 6.5468 10.7291 6.45268 10.8232 6.31151C10.9173 6.17033 10.9173 6.00563 10.9408 5.84092C12.0467 6.82915 12.8467 8.05268 13.3879 9.41739C13.6938 10.2174 13.9055 11.088 13.7408 11.935C13.5996 12.7115 13.2232 13.4174 12.682 14.0056C11.7879 15.0174 10.5879 15.8174 9.2467 15.9586C8.54082 16.0292 7.78788 16.0527 6.98788 16.0056Z" fill="#F95353"/>
<path id="Vector_2" d="M11.1293 14.9239C11.0822 15.0886 11.0116 15.2768 10.9411 15.4415C10.4234 15.7239 9.85871 15.9121 9.27047 15.9592C8.82341 16.0062 8.37635 16.0298 7.90577 16.0298C7.62341 16.0298 7.31753 16.0298 7.01165 16.0062C6.47047 15.9592 5.9293 15.8415 5.41165 15.6533C5.1293 15.2533 4.94106 14.7827 4.87047 14.3121C4.70577 13.2768 5.01165 12.218 5.59988 11.3474C5.694 11.2062 5.90577 11.2533 5.95283 11.418C6.11753 11.9592 6.47047 12.4533 6.87047 12.8768C6.98812 12.9945 7.17636 12.9239 7.19988 12.7592C7.24694 12.1945 7.36459 11.1357 7.57636 10.5709C7.83518 9.86506 8.23518 9.18271 8.82341 8.68859C8.94106 8.59448 9.10577 8.64153 9.1293 8.80624C9.24694 9.51212 9.59988 10.1709 9.95283 10.8062C10.3764 11.5121 10.8469 12.218 11.0587 13.018C11.2705 13.6062 11.294 14.2886 11.1293 14.9239Z" fill="white"/>
<g id="Group_2">
<path id="Vector_3" d="M11.1293 14.9239C11.0822 15.0886 11.0116 15.2768 10.9411 15.4415C10.4234 15.7239 9.85871 15.9121 9.27047 15.9592C8.82341 16.0062 8.37635 16.0298 7.90577 16.0298C7.62341 16.0298 7.31753 16.0298 7.01165 16.0062C6.47047 15.9592 5.9293 15.8415 5.41165 15.6533C5.1293 15.2533 4.94106 14.7827 4.87047 14.3121C4.70577 13.2768 5.01165 12.218 5.59988 11.3474C5.694 11.2062 5.90577 11.2533 5.95283 11.418C6.11753 11.9592 6.47047 12.4533 6.87047 12.8768C6.98812 12.9945 7.17636 12.9239 7.19988 12.7592C7.24694 12.1945 7.36459 11.1357 7.57636 10.5709C7.83518 9.86506 8.23518 9.18271 8.82341 8.68859C8.94106 8.59448 9.10577 8.64153 9.1293 8.80624C9.24694 9.51212 9.59988 10.1709 9.95283 10.8062C10.3764 11.5121 10.8469 12.218 11.0587 13.018C11.2705 13.6062 11.294 14.2886 11.1293 14.9239Z" fill="#FFD550"/>
<path id="Vector_4" d="M11.1293 14.9239C11.0822 15.0886 11.0116 15.2768 10.9411 15.4415C10.4234 15.7239 9.85871 15.9121 9.27047 15.9592C8.82341 16.0062 8.37635 16.0298 7.90577 16.0298C7.62341 16.0298 7.31753 16.0298 7.01165 16.0062C6.47047 15.9592 5.9293 15.8415 5.41165 15.6533C5.1293 15.2533 4.94106 14.7827 4.87047 14.3121C4.70577 13.2768 5.01165 12.218 5.59988 11.3474C5.694 11.2062 5.90577 11.2533 5.95283 11.418C6.11753 11.9592 6.47047 12.4533 6.87047 12.8768C6.98812 12.9945 7.17636 12.9239 7.19988 12.7592C7.24694 12.1945 7.36459 11.1357 7.57636 10.5709C7.83518 9.86506 8.23518 9.18271 8.82341 8.68859C8.94106 8.59448 9.10577 8.64153 9.1293 8.80624C9.24694 9.51212 9.59988 10.1709 9.95283 10.8062C10.3764 11.5121 10.8469 12.218 11.0587 13.018C11.2705 13.6062 11.294 14.2886 11.1293 14.9239Z" fill="#FFD550"/>
</g>
</g>
</g>
<defs>
<clipPath id="clip0_31_2109">
<rect width="16" height="16" fill="white" transform="translate(0 0.5)"/>
</clipPath>
</defs>
</svg>
