<svg width="1734" height="212" viewBox="0 0 1734 212" fill="none" xmlns="http://www.w3.org/2000/svg">
<path d="M1665.67 141.541C1669.54 131.863 1673.17 120.814 1676.55 108.394C1679.94 95.8127 1681.63 86.5379 1681.63 80.5697C1681.63 74.6016 1681.07 70.2465 1679.94 67.5044C1678.97 64.7623 1677.76 63.3912 1676.31 63.3912C1670.99 63.3912 1667.44 78.2309 1665.67 107.91V141.541ZM1730.02 167.43C1729.22 167.43 1728.41 167.914 1727.61 168.882C1726.96 169.688 1726.07 170.737 1724.94 172.027C1723.81 173.156 1721.4 174.769 1717.69 176.866C1713.98 178.802 1710.18 179.77 1706.31 179.77C1699.38 179.77 1693.41 177.028 1688.41 171.543C1683.57 165.898 1681.15 161.704 1681.15 158.962C1681.15 156.059 1680.75 154.446 1679.94 154.123C1679.13 154.123 1678.09 155.333 1676.8 157.752C1673.41 164.043 1671.71 171.463 1671.71 180.012C1671.71 188.399 1673.97 194.932 1678.49 199.61C1683.17 204.449 1688.09 206.868 1693.25 206.868C1702.12 206.868 1710.99 202.271 1719.86 193.077C1728.73 183.722 1733.17 176.705 1733.17 172.027C1733.17 168.963 1732.12 167.43 1730.02 167.43ZM1665.91 153.155V154.607C1665.91 156.542 1666.07 157.51 1666.39 157.51C1666.88 157.51 1667.44 157.188 1668.09 156.542C1671.63 146.38 1676.07 137.59 1681.39 130.17C1686.72 122.589 1692.52 118.798 1698.81 118.798C1704.46 118.798 1707.28 122.589 1707.28 130.17C1707.28 132.912 1705.91 136.702 1703.17 141.541C1700.59 146.219 1698.09 148.558 1695.67 148.558C1694.7 148.558 1693.73 147.832 1692.76 146.38C1691.8 144.767 1690.1 143.961 1687.68 143.961C1683.01 143.961 1679.05 146.058 1675.83 150.252C1672.6 154.284 1670.26 159.526 1668.81 165.979C1666.55 176.947 1665.42 187.432 1665.42 197.432C1665.42 202.271 1663.25 204.691 1658.89 204.691C1658.08 204.691 1657.68 203.965 1657.68 202.513C1658.33 192.029 1658.65 178.883 1658.65 163.075V128.718C1658.65 98.8774 1659.7 78.5535 1661.79 67.7463C1664.21 55.8101 1667.28 48.0676 1670.99 44.519C1673.25 42.4221 1675.91 41.3737 1678.97 41.3737C1687.68 41.3737 1692.04 47.9063 1692.04 60.9717C1692.04 74.0371 1688.97 90.0865 1682.84 109.12C1676.88 128.153 1671.23 142.832 1665.91 153.155Z" fill="gold"/>
<path d="M1618.19 169.124C1620.93 168.156 1623.68 165.091 1626.42 159.93C1629.32 154.607 1630.77 150.252 1630.77 146.864C1630.77 143.477 1629.48 141.703 1626.9 141.541C1623.03 141.541 1620.29 143.316 1618.68 146.864C1617.06 150.252 1616.26 154.042 1616.26 158.236C1616.26 162.269 1616.9 165.898 1618.19 169.124ZM1639 184.851C1643.52 184.851 1647.23 183.883 1650.13 181.947C1653.19 179.85 1656.02 177.189 1658.6 173.963C1661.34 170.737 1663.44 169.124 1664.89 169.124C1666.5 169.124 1667.31 169.85 1667.31 171.301C1667.31 172.269 1666.99 173.398 1666.34 174.689C1661.02 183.238 1654.4 190.738 1646.5 197.19C1638.6 203.804 1630.21 207.11 1621.34 207.11C1612.47 207.11 1606.01 204.933 1601.98 200.578C1598.11 196.384 1596.17 190.738 1596.17 183.641C1596.17 171.382 1600.77 158.881 1609.97 146.139C1619.16 133.234 1628.68 126.782 1638.52 126.782C1643.68 126.782 1646.26 128.879 1646.26 133.073C1646.26 138.719 1644.48 144.606 1640.94 150.736C1637.39 156.704 1630.85 164.849 1621.34 175.173C1625.69 181.625 1631.58 184.851 1639 184.851Z" fill="gold"/>
<path d="M1559.83 169.124C1562.57 168.156 1565.32 165.091 1568.06 159.93C1570.96 154.607 1572.41 150.252 1572.41 146.864C1572.41 143.477 1571.12 141.703 1568.54 141.541C1564.67 141.541 1561.93 143.316 1560.31 146.864C1558.7 150.252 1557.9 154.042 1557.9 158.236C1557.9 162.269 1558.54 165.898 1559.83 169.124ZM1580.64 184.851C1585.15 184.851 1588.86 183.883 1591.77 181.947C1594.83 179.85 1597.66 177.189 1600.24 173.963C1602.98 170.737 1605.08 169.124 1606.53 169.124C1608.14 169.124 1608.95 169.85 1608.95 171.301C1608.95 172.269 1608.62 173.398 1607.98 174.689C1602.66 183.238 1596.04 190.738 1588.14 197.19C1580.24 203.804 1571.85 207.11 1562.98 207.11C1554.1 207.11 1547.65 204.933 1543.62 200.578C1539.75 196.384 1537.81 190.738 1537.81 183.641C1537.81 171.382 1542.41 158.881 1551.6 146.139C1560.8 133.234 1570.32 126.782 1580.15 126.782C1585.32 126.782 1587.9 128.879 1587.9 133.073C1587.9 138.719 1586.12 144.606 1582.57 150.736C1579.03 156.704 1572.49 164.849 1562.98 175.173C1567.33 181.625 1573.22 184.851 1580.64 184.851Z" fill="gold"/>
<path d="M1389.65 26.3726C1390.62 25.2435 1391.59 24.679 1392.56 24.679C1393.53 24.679 1394.41 25.0822 1395.22 25.8887C1396.19 26.6952 1396.67 27.7437 1396.67 29.0341C1396.67 30.1632 1395.86 31.7762 1394.25 33.8731C1386.35 45.4868 1378.69 61.2136 1371.27 81.0536C1363.85 100.894 1360.14 118.072 1360.14 132.589C1360.14 146.945 1362.64 157.43 1367.64 164.043C1372.64 170.656 1378.28 173.963 1384.57 173.963C1391.03 173.963 1397.64 170.656 1404.41 164.043C1411.19 157.43 1417.64 148.881 1423.77 138.396C1434.58 119.363 1442.72 103.394 1448.21 90.4897C1450.14 86.2959 1451.67 84.199 1452.8 84.199C1453.93 84.199 1454.9 84.6022 1455.71 85.4087C1456.67 86.2152 1457.16 86.9411 1457.16 87.5863C1457.16 88.2315 1456.67 91.4575 1455.71 97.2643C1454.9 103.071 1454.5 110.249 1454.5 118.798C1454.5 157.026 1465.79 176.14 1488.37 176.14C1495.63 176.14 1502.24 174.044 1508.21 169.85C1514.18 165.495 1518.86 160.172 1522.24 153.881C1529.34 140.493 1532.89 128.879 1532.89 119.04C1532.89 109.039 1530.71 98.4741 1526.36 87.3443C1522.16 76.2146 1515.79 66.2139 1507.24 57.3424C1498.85 48.3095 1489.66 43.6318 1479.66 43.3092C1476.76 43.1479 1475.31 42.0188 1475.31 39.9219C1475.31 36.5346 1478.21 32.5827 1484.02 28.0663C1489.82 23.3885 1496.27 21.0497 1503.37 21.0497C1515.15 21.0497 1525.47 27.0985 1534.34 39.196C1543.37 51.1323 1547.89 68.4721 1547.89 91.2155C1547.89 106.7 1545.23 121.943 1539.91 136.944C1534.58 151.784 1527.81 164.527 1519.58 175.173C1511.52 185.657 1502.56 194.125 1492.73 200.578C1483.05 207.191 1473.93 210.497 1465.39 210.497C1459.74 210.497 1454.9 208.965 1450.87 205.9C1446.84 202.997 1443.77 199.206 1441.67 194.529C1438.13 185.818 1436.35 176.624 1436.35 166.946C1436.35 158.397 1437 150.897 1438.29 144.445C1439.58 137.993 1440.54 133.234 1441.19 130.17C1441.84 126.944 1442.16 125.089 1442.16 124.605C1442.16 123.96 1442.08 123.637 1441.92 123.637C1440.95 123.637 1439.42 125.895 1437.32 130.412C1435.22 134.767 1433.37 138.477 1431.75 141.541C1421.59 160.736 1409.01 178.399 1394.01 194.529C1383.36 205.981 1372.48 211.707 1361.35 211.707C1355.7 211.707 1349.73 209.046 1343.44 203.723C1340.05 200.819 1337.31 196.464 1335.22 190.657C1333.12 184.689 1332.07 177.189 1332.07 168.156C1332.07 159.123 1334.33 146.945 1338.84 131.621C1343.52 116.298 1350.06 99.8451 1358.44 82.2633C1370.22 57.2617 1380.62 38.6315 1389.65 26.3726Z" fill="gold"/>
<path d="M1170.03 176.14C1170.03 173.56 1172.53 169.366 1177.53 163.559C1182.53 157.591 1186.57 154.607 1189.63 154.607C1192.86 154.607 1195.2 155.817 1196.65 158.236C1198.26 160.656 1199.23 163.317 1199.55 166.22C1199.87 169.124 1200.76 171.785 1202.21 174.205C1203.83 176.624 1206.08 177.834 1208.99 177.834C1212.05 177.834 1214.71 176.544 1216.97 173.963C1219.39 171.221 1221.33 168.237 1222.78 165.011C1224.23 161.623 1226.17 158.639 1228.58 156.058C1231 153.316 1233.34 151.945 1235.6 151.945C1238.02 151.945 1239.71 152.913 1240.68 154.849C1250.68 176.302 1260.85 187.028 1271.17 187.028C1272.78 187.028 1274.23 186.786 1275.52 186.302C1276.81 185.818 1277.78 185.577 1278.43 185.577C1280.36 185.577 1281.33 187.109 1281.33 190.174C1281.33 195.658 1278.43 200.577 1272.62 204.933C1266.97 209.288 1261.17 211.465 1255.2 211.465C1249.23 211.465 1244.15 209.53 1239.96 205.658C1235.92 201.787 1233.1 197.835 1231.49 193.803C1230.04 189.609 1228.91 185.577 1228.1 181.705C1227.46 177.834 1226.73 175.898 1225.92 175.898C1224.63 175.898 1222.05 178.479 1218.18 183.641C1214.47 188.641 1210.2 193.722 1205.36 198.884C1200.68 204.045 1196.49 206.626 1192.78 206.626C1188.9 206.142 1185.84 204.207 1183.58 200.819C1181.32 197.593 1179.87 194.206 1179.23 190.657C1177.78 180.979 1174.71 176.14 1170.03 176.14Z" fill="gold"/>
<path d="M1153.76 171.543C1146.17 171.543 1140.21 169.608 1135.85 165.736C1131.5 161.865 1129 156.946 1128.35 150.977C1125.77 152.913 1124.48 156.542 1124.48 161.865C1124.48 167.027 1125.93 171.624 1128.83 175.656C1131.9 179.528 1135.61 181.463 1139.96 181.463C1144.48 181.463 1147.87 180.334 1150.13 178.076C1152.55 175.818 1153.76 173.64 1153.76 171.543ZM1163.19 155.333C1163.68 156.784 1164.24 157.51 1164.89 157.51C1165.69 157.51 1166.98 157.107 1168.76 156.3C1170.53 155.333 1172.06 154.849 1173.35 154.849C1174.64 154.849 1175.29 155.655 1175.29 157.268C1175.29 158.881 1173.52 161.543 1169.97 165.253C1166.58 168.962 1163.68 170.817 1161.26 170.817C1157.87 180.012 1152.22 188.561 1144.32 196.464C1136.58 204.207 1128.59 208.078 1120.37 208.078C1114.56 208.078 1109.72 206.142 1105.85 202.271C1101.98 198.561 1100.04 193.077 1100.04 185.818C1100.04 178.399 1103.11 170.414 1109.24 161.865C1115.37 153.155 1121.66 148.8 1128.11 148.8V147.832C1128.11 144.283 1129.32 141.461 1131.74 139.364C1134.16 137.106 1137.14 135.976 1140.69 135.976C1151.66 135.976 1159.16 142.428 1163.19 155.333Z" fill="gold"/>
<path d="M1049.14 121.701C1046.72 118.959 1045.51 115.572 1045.51 111.54C1045.51 107.507 1046.72 104.12 1049.14 101.378C1051.72 98.6355 1054.87 97.2644 1058.58 97.2644C1062.29 97.2644 1065.35 98.6355 1067.77 101.378C1070.35 104.12 1071.64 107.507 1071.64 111.54C1071.64 115.572 1070.35 118.959 1067.77 121.701C1065.35 124.444 1062.29 125.815 1058.58 125.815C1054.87 125.815 1051.72 124.444 1049.14 121.701ZM1099.47 174.447C1101.08 173.156 1102.53 172.511 1103.82 172.511C1106.08 172.511 1107.21 173.963 1107.21 176.866C1107.21 180.899 1102.21 186.948 1092.21 195.013C1082.21 202.916 1073.58 206.868 1066.32 206.868C1059.06 206.868 1053.42 204.288 1049.38 199.126C1045.35 193.964 1043.34 187.351 1043.34 179.286C1043.34 171.06 1044.71 163.156 1047.45 155.575C1050.19 147.994 1052.93 144.203 1055.67 144.203C1056.97 144.364 1057.61 146.38 1057.61 150.252C1057.61 153.962 1058.17 158.075 1059.3 162.591C1060.43 167.108 1062.85 171.463 1066.56 175.657C1070.43 179.689 1075.35 181.705 1081.32 181.705C1087.45 181.705 1093.5 179.286 1099.47 174.447Z" fill="gold"/>
<path d="M982.102 59.762C975.489 59.762 972.182 81.6182 972.182 125.331V139.848C976.376 129.202 980.247 117.427 983.796 104.523C987.506 91.6189 989.361 80.973 989.361 72.5854C989.361 64.0364 986.941 59.762 982.102 59.762ZM974.602 185.093C976.215 185.093 980.893 179.77 988.635 169.124C996.377 158.478 1001.3 153.155 1003.39 153.155C1005.49 152.994 1007.59 154.687 1009.68 158.236C1011.78 161.785 1013.8 165.737 1015.73 170.092C1017.83 174.286 1021.14 178.237 1025.65 181.947C1030.17 185.496 1034.69 187.27 1039.2 187.27C1043.72 187.27 1046.46 186.948 1047.43 186.302C1048.4 185.657 1049.12 185.335 1049.61 185.335C1050.25 185.335 1050.57 185.98 1050.57 187.27C1050.41 190.496 1047.83 194.367 1042.83 198.884C1037.83 203.562 1031.22 205.9 1022.99 205.9C1009.12 205.9 999.442 197.916 993.958 181.947C993.474 180.98 992.99 180.496 992.506 180.496C992.184 180.496 991.619 180.818 990.813 181.463C990.006 182.109 988.312 183.964 985.732 187.028C983.151 190.093 980.489 193.238 977.747 196.464C975.166 199.69 973.553 201.626 972.908 202.271C972.263 202.916 971.053 203.239 969.279 203.239C967.505 203.239 966.537 202.271 966.376 200.336C964.924 185.819 964.198 170.656 964.198 154.849C964.198 138.88 964.359 126.541 964.682 117.83C965.166 109.12 966.053 97.9096 967.343 84.199C968.634 70.4885 970.892 59.2781 974.118 50.5678C977.505 41.8576 981.699 37.5024 986.699 37.5024C997.184 37.5024 1002.43 44.8416 1002.43 59.52C1002.43 72.1015 999.039 87.9896 992.264 107.184C985.49 126.218 978.957 141.3 972.666 152.429C973.311 174.205 973.957 185.093 974.602 185.093Z" fill="gold"/>
<path d="M951.766 181.463C953.056 181.463 955.153 180.496 958.056 178.56C960.96 176.624 963.299 174.689 965.073 172.753L967.735 170.092C968.864 168.963 969.993 168.398 971.122 168.398C973.057 168.398 974.025 169.527 974.025 171.785C974.025 172.592 973.945 173.237 973.783 173.721C969.59 183.883 961.847 192.029 950.556 198.158C939.265 204.449 929.184 207.594 920.312 207.594C903.053 207.594 894.423 200.819 894.423 187.27C894.423 185.496 896.52 182.673 900.714 178.802C904.908 174.931 907.973 172.511 909.908 171.543C911.199 170.576 912.166 170.092 912.812 170.092C913.618 170.092 914.263 170.414 914.747 171.059C915.231 171.705 915.796 172.511 916.441 173.479C917.086 174.447 917.651 175.253 918.135 175.898C918.618 176.544 919.264 177.431 920.07 178.56C920.877 179.689 921.683 180.657 922.49 181.463C923.458 182.109 924.506 182.754 925.635 183.399C927.732 185.012 929.91 185.818 932.168 185.818C934.587 185.818 935.797 184.447 935.797 181.705C935.797 174.931 933.297 169.124 928.297 164.285C923.296 159.284 919.102 156.784 915.715 156.784C914.909 156.784 914.102 157.268 913.296 158.236L904.343 167.188C902.892 168.64 901.843 169.366 901.198 169.366C898.778 169.366 897.569 168.317 897.569 166.22C914.828 145.09 925.071 134.525 928.297 134.525C932.813 134.525 937.975 137.589 943.781 143.719C949.588 149.848 952.492 155.978 952.492 162.107C952.492 167.914 952.008 172.35 951.04 175.415C950.233 178.479 949.83 180.254 949.83 180.737C949.83 181.221 950.475 181.463 951.766 181.463Z" fill="gold"/>
<path d="M876.319 165.978L875.351 172.753C875.351 175.656 876.561 178.721 878.98 181.947C881.561 185.012 884.545 186.544 887.932 186.544C890.513 186.544 892.61 185.98 894.223 184.851C897.772 182.431 899.949 180.818 900.756 180.012C901.724 179.044 903.175 178.56 905.111 178.56C907.208 178.56 908.256 179.286 908.256 180.737C908.256 182.35 904.466 187.431 896.885 195.98C894.465 198.722 890.916 201.626 886.239 204.691C881.561 207.755 877.367 209.288 873.657 209.288C870.109 209.288 867.366 208.642 865.431 207.352C863.657 206.223 862.366 204.368 861.56 201.787C860.592 198.239 860.108 193.883 860.108 188.722C860.108 188.077 859.705 187.754 858.898 187.754C858.092 187.754 856.237 189.367 853.333 192.593C844.3 201.948 836.961 206.626 831.316 206.626C825.831 206.626 821.557 205.174 818.492 202.271C815.589 199.368 814.137 195.658 814.137 191.141C814.137 183.238 816.234 175.737 820.428 168.64C824.622 161.381 829.622 155.574 835.429 151.219C848.333 141.703 858.334 136.944 865.431 136.944C876.077 137.267 881.4 141.057 881.4 148.316C881.4 150.897 880.271 153.478 878.012 156.058C875.754 158.478 873.657 159.688 871.722 159.688C869.786 159.688 867.125 157.994 863.737 154.607C860.35 151.219 856.64 149.526 852.607 149.526C848.575 149.526 845.268 151.219 842.687 154.607C840.107 157.833 838.816 162.026 838.816 167.188C838.816 175.576 843.252 179.77 852.124 179.77C855.672 179.77 858.576 178.882 860.834 177.108C863.253 175.334 864.947 173.398 865.915 171.301C868.657 165.817 871.157 163.075 873.415 163.075C875.351 163.075 876.319 164.043 876.319 165.978Z" fill="gold"/>
<path d="M776.916 130.412C775.787 130.412 774.739 130.008 773.771 129.202C772.965 128.395 772.561 127.428 772.561 126.299C772.561 125.169 774.416 122.508 778.126 118.314C781.997 114.12 786.514 109.685 791.675 105.007C796.837 100.168 802.966 96.1353 810.064 92.9093C817.161 89.6832 824.339 87.9896 831.597 87.8283C836.436 87.8283 840.227 89.038 842.969 91.4575C845.711 93.7158 847.082 96.3772 847.082 99.4419C847.082 102.507 844.34 107.184 838.856 113.475C833.372 119.605 828.533 122.669 824.339 122.669C823.371 122.669 821.758 122.105 819.5 120.976C817.403 119.685 815.225 119.04 812.967 119.04C810.87 119.04 805.951 120.169 798.208 122.427C790.627 124.524 785.465 126.379 782.723 127.992C780.142 129.605 778.207 130.412 776.916 130.412ZM770.142 144.203L771.835 58.7941C771.513 57.9876 771.029 57.5844 770.384 57.5844C767.642 57.7457 765.464 58.6328 763.851 60.2458C762.399 61.6975 761.673 63.2299 761.673 64.8429C761.673 66.4559 761.432 74.6016 760.948 89.28C759.173 133.315 758.286 163.236 758.286 179.044L758.528 199.852V203.481C758.528 204.771 759.012 206.384 759.98 208.32C761.109 210.256 762.561 211.223 764.335 211.223C766.271 211.223 768.287 210.498 770.384 209.046C772.642 207.594 773.771 205.659 773.771 203.239C773.771 200.981 773.126 191.787 771.835 175.657C770.706 159.365 770.142 148.881 770.142 144.203ZM849.986 32.4215L837.404 31.2117C817.887 31.2117 780.707 46.4546 725.865 76.9405C724.252 77.747 723.123 78.1502 722.477 78.1502C721.993 78.1502 721.752 77.0211 721.752 74.7629C721.752 72.3434 722.8 67.3431 724.897 59.7619C726.994 52.1808 729.091 47.745 731.188 46.4546C782.804 15.4849 826.033 0 860.874 0C869.584 0 873.939 2.82276 873.939 8.46828C873.939 12.1782 871.035 17.0979 865.229 23.2273C859.583 29.3567 854.502 32.4215 849.986 32.4215Z" fill="gold"/>
<path d="M653.58 181.463C654.87 181.463 656.967 180.496 659.871 178.56C662.774 176.624 665.113 174.689 666.887 172.753L669.549 170.092C670.678 168.963 671.807 168.398 672.936 168.398C674.872 168.398 675.839 169.527 675.839 171.785C675.839 172.592 675.759 173.237 675.597 173.721C671.404 183.883 663.661 192.029 652.37 198.158C641.079 204.449 630.998 207.594 622.126 207.594C604.867 207.594 596.237 200.819 596.237 187.27C596.237 185.496 598.334 182.673 602.528 178.802C606.722 174.931 609.787 172.511 611.722 171.543C613.013 170.576 613.98 170.092 614.626 170.092C615.432 170.092 616.077 170.414 616.561 171.059C617.045 171.705 617.61 172.511 618.255 173.479C618.9 174.447 619.465 175.253 619.949 175.898C620.433 176.544 621.078 177.431 621.884 178.56C622.691 179.689 623.497 180.657 624.304 181.463C625.272 182.109 626.32 182.754 627.449 183.399C629.546 185.012 631.724 185.818 633.982 185.818C636.401 185.818 637.611 184.447 637.611 181.705C637.611 174.931 635.111 169.124 630.111 164.285C625.11 159.284 620.916 156.784 617.529 156.784C616.723 156.784 615.916 157.268 615.11 158.236L606.157 167.188C604.706 168.64 603.657 169.366 603.012 169.366C600.593 169.366 599.383 168.317 599.383 166.22C616.642 145.09 626.885 134.525 630.111 134.525C634.627 134.525 639.789 137.589 645.595 143.719C651.402 149.848 654.306 155.978 654.306 162.107C654.306 167.914 653.822 172.35 652.854 175.415C652.048 178.479 651.644 180.254 651.644 180.737C651.644 181.221 652.289 181.463 653.58 181.463Z" fill="gold"/>
<path d="M552.094 169.124C554.837 168.156 557.579 165.091 560.321 159.93C563.224 154.607 564.676 150.252 564.676 146.864C564.676 143.477 563.386 141.703 560.805 141.541C556.933 141.541 554.191 143.316 552.578 146.864C550.965 150.252 550.159 154.042 550.159 158.236C550.159 162.269 550.804 165.898 552.094 169.124ZM572.902 184.851C577.419 184.851 581.129 183.883 584.032 181.947C587.097 179.85 589.92 177.189 592.5 173.963C595.242 170.737 597.339 169.124 598.791 169.124C600.404 169.124 601.211 169.85 601.211 171.301C601.211 172.269 600.888 173.398 600.243 174.689C594.92 183.238 588.307 190.738 580.403 197.19C572.499 203.804 564.111 207.11 555.24 207.11C546.368 207.11 539.916 204.933 535.884 200.578C532.012 196.384 530.077 190.738 530.077 183.641C530.077 171.382 534.674 158.881 543.868 146.139C553.062 133.234 562.579 126.782 572.418 126.782C577.58 126.782 580.161 128.879 580.161 133.073C580.161 138.719 578.386 144.606 574.838 150.736C571.289 156.704 564.757 164.849 555.24 175.173C559.595 181.625 565.482 184.851 572.902 184.851Z" fill="gold"/>
<path d="M433.229 122.669C433.229 119.443 435.809 117.024 440.971 115.411C448.875 112.023 461.779 106.781 479.683 99.6838C482.909 75.1661 487.748 62.9072 494.2 62.9072C498.394 62.9072 500.491 69.6012 500.491 82.9892C500.491 86.8604 500.41 89.7638 500.249 91.6994C524.767 82.344 541.219 76.6178 549.607 74.5209C557.995 72.424 564.689 71.3755 569.689 71.3755C577.27 71.3755 581.061 74.1176 581.061 79.6019C581.061 81.3762 579.932 82.8279 577.673 83.957C567.673 88.9573 561.463 91.4575 559.043 91.4575C558.559 91.4575 557.753 91.1349 556.624 90.4897C555.495 89.6832 554.204 89.2799 552.752 89.2799C551.301 89.2799 548.317 89.8445 543.8 90.9736C534.606 93.3931 519.524 98.0708 498.555 105.007C496.62 117.588 493.797 126.621 490.087 132.105C490.732 150.494 493.152 162.914 497.346 169.366C499.281 172.43 502.023 175.092 505.572 177.35C509.282 179.608 513.798 180.737 519.121 180.737C524.444 180.737 529.686 178.318 534.848 173.479C535.816 172.511 536.622 172.027 537.268 172.027C538.558 172.027 539.203 173.076 539.203 175.173C539.203 181.947 534.687 188.803 525.654 195.738C516.621 202.513 507.991 205.9 499.765 205.9C483.474 205.9 475.328 192.674 475.328 166.22C475.328 149.606 476.296 131.702 478.231 112.507C464.843 117.669 455.004 121.863 448.713 125.089C442.261 128.315 438.471 129.928 437.342 129.928C436.213 129.928 435.245 129.121 434.438 127.508C433.632 125.895 433.229 124.282 433.229 122.669Z" fill="gold"/>
<path d="M450.069 165.978L449.101 172.753C449.101 175.656 450.311 178.721 452.73 181.947C455.311 185.012 458.295 186.544 461.682 186.544C464.263 186.544 466.36 185.98 467.973 184.851C471.522 182.431 473.699 180.818 474.506 180.012C475.474 179.044 476.925 178.56 478.861 178.56C480.958 178.56 482.006 179.286 482.006 180.737C482.006 182.35 478.216 187.431 470.635 195.98C468.215 198.722 464.666 201.626 459.989 204.691C455.311 207.755 451.117 209.288 447.407 209.288C443.859 209.288 441.117 208.642 439.181 207.352C437.407 206.223 436.116 204.368 435.31 201.787C434.342 198.239 433.858 193.883 433.858 188.722C433.858 188.077 433.455 187.754 432.648 187.754C431.842 187.754 429.987 189.367 427.083 192.593C418.051 201.948 410.711 206.626 405.066 206.626C399.582 206.626 395.307 205.174 392.242 202.271C389.339 199.368 387.887 195.658 387.887 191.141C387.887 183.238 389.984 175.737 394.178 168.64C398.372 161.381 403.372 155.574 409.179 151.219C422.083 141.703 432.084 136.944 439.181 136.944C449.827 137.267 455.15 141.057 455.15 148.316C455.15 150.897 454.021 153.478 451.762 156.058C449.504 158.478 447.407 159.688 445.472 159.688C443.536 159.688 440.875 157.994 437.487 154.607C434.1 151.219 430.39 149.526 426.358 149.526C422.325 149.526 419.018 151.219 416.438 154.607C413.857 157.833 412.566 162.026 412.566 167.188C412.566 175.576 417.002 179.77 425.874 179.77C429.422 179.77 432.326 178.882 434.584 177.108C437.003 175.334 438.697 173.398 439.665 171.301C442.407 165.817 444.907 163.075 447.165 163.075C449.101 163.075 450.069 164.043 450.069 165.978Z" fill="gold"/>
<path d="M333.605 165.253L327.072 165.737C324.169 165.737 322.717 165.011 322.717 163.559C322.717 161.301 325.54 157.026 331.185 150.736C336.992 144.284 342.154 141.057 346.67 141.057C348.606 141.057 350.3 141.622 351.751 142.751C353.364 143.88 354.251 145.251 354.413 146.864L355.623 157.752C356.106 158.397 356.59 158.72 357.074 158.72C357.558 158.72 358.849 157.43 360.945 154.849C367.72 146.945 373.769 142.993 379.092 142.993C381.189 142.993 382.882 143.316 384.173 143.961C385.463 144.606 386.915 145.897 388.528 147.832C390.302 149.606 391.27 150.574 391.431 150.736C392.56 150.252 393.69 150.01 394.819 150.01C396.593 150.01 397.48 151.139 397.48 153.397C397.48 155.494 394.335 159.526 388.044 165.495C381.753 171.301 377.076 174.205 374.011 174.205C370.946 174.205 368.365 172.834 366.268 170.092C364.171 167.35 362.639 165.978 361.671 165.978C357.961 165.978 356.106 167.914 356.106 171.785C356.106 174.689 357.397 179.608 359.978 186.544C362.72 193.48 364.091 197.593 364.091 198.884C364.091 202.11 362.397 204.61 359.01 206.384C355.784 208.32 352.155 209.288 348.122 209.288C344.251 209.288 341.105 208.643 338.686 207.352C336.266 206.062 335.057 204.287 335.057 202.029L341.831 172.753C341.831 167.753 339.089 165.253 333.605 165.253Z" fill="gold"/>
<path d="M280.285 121.701C277.866 118.959 276.656 115.572 276.656 111.54C276.656 107.507 277.866 104.12 280.285 101.378C282.866 98.6355 286.012 97.2644 289.721 97.2644C293.431 97.2644 296.496 98.6355 298.916 101.378C301.496 104.12 302.787 107.507 302.787 111.54C302.787 115.572 301.496 118.959 298.916 121.701C296.496 124.444 293.431 125.815 289.721 125.815C286.012 125.815 282.866 124.444 280.285 121.701ZM330.611 174.447C332.224 173.156 333.676 172.511 334.966 172.511C337.225 172.511 338.354 173.963 338.354 176.866C338.354 180.899 333.353 186.948 323.353 195.013C313.352 202.916 304.722 206.868 297.464 206.868C290.205 206.868 284.56 204.288 280.527 199.126C276.495 193.964 274.479 187.351 274.479 179.286C274.479 171.06 275.85 163.156 278.592 155.575C281.334 147.994 284.076 144.203 286.818 144.203C288.108 144.364 288.754 146.38 288.754 150.252C288.754 153.962 289.318 158.075 290.447 162.591C291.576 167.108 293.996 171.463 297.706 175.657C301.577 179.689 306.497 181.705 312.465 181.705C318.594 181.705 324.643 179.286 330.611 174.447Z" fill="gold"/>
<path d="M170.632 189.69C170.632 182.754 169.825 179.286 168.212 179.286C166.761 179.286 164.664 181.302 161.922 185.334C159.341 189.367 156.518 193.4 153.453 197.432C150.389 201.626 147.566 203.723 144.985 203.723C143.533 203.723 141.275 201.142 138.211 195.98C135.307 190.819 132.081 185.738 128.532 180.737C124.984 175.576 121.838 172.995 119.096 172.995C118.29 172.995 117.887 172.592 117.887 171.785C117.887 169.204 120.951 164.527 127.081 157.752C133.21 150.977 137.565 147.59 140.146 147.59C142.888 147.59 146.84 151.784 152.002 160.172C157.325 168.559 160.873 172.753 162.648 172.753C164.422 172.753 167.971 169.446 173.293 162.833C178.778 156.22 183.052 152.913 186.117 152.913C189.343 152.913 191.682 154.203 193.133 156.784C194.746 159.204 195.634 161.865 195.795 164.769C196.118 167.672 196.44 170.414 196.763 172.995C197.085 175.414 197.731 176.624 198.698 176.624C200.311 176.624 204.424 172.672 211.038 164.769C217.812 156.704 222.732 152.671 225.797 152.671C229.184 152.671 234.83 157.752 242.733 167.914C245.637 171.785 249.266 175.334 253.621 178.56C258.138 181.625 261.848 183.157 264.751 183.157C267.654 183.157 270.477 182.673 273.219 181.705C275.961 180.737 278.3 180.254 280.236 180.254C282.172 180.254 283.139 180.899 283.139 182.189C283.139 182.834 282.817 183.399 282.171 183.883C281.688 184.367 280.317 185.657 278.058 187.754C275.961 189.69 274.187 191.222 272.735 192.351C271.445 193.48 269.509 195.013 266.929 196.948C264.509 199.045 262.412 200.658 260.638 201.787C255.799 204.691 251.202 206.142 246.847 206.142C242.653 206.142 237.894 203.723 232.572 198.884C227.41 194.206 222.893 189.528 219.022 184.851C215.312 180.012 212.57 177.592 210.796 177.592C209.022 177.592 206.118 180.012 202.086 184.851C198.214 189.69 194.182 194.529 189.988 199.368C185.956 204.207 182.407 206.626 179.342 206.626C176.439 206.626 174.181 205.255 172.568 202.513C171.116 199.771 170.39 196.787 170.39 193.561L170.632 189.69Z" fill="gold"/>
<path d="M104.415 35.8088L105.625 30.9697C105.625 28.0663 104.092 25.9694 101.028 24.679C98.1242 23.2273 95.2208 22.5015 92.3174 22.5015C85.5428 22.5015 77.1551 24.679 67.1545 29.0341C57.1538 33.3893 48.3629 38.6315 40.7818 44.761C33.2006 50.7291 29.3294 55.8101 29.1681 60.0039C29.1681 64.1977 31.1844 68.0689 35.2169 71.6176C39.4107 75.1662 43.9272 78.0696 48.7662 80.3278C53.7665 82.586 58.2829 85.4894 62.3154 89.038C66.5093 92.4254 68.6062 96.2159 68.6062 100.41C68.6062 104.442 67.3158 108.313 64.735 112.023C62.3154 115.733 59.3314 119.04 55.7828 121.943C52.2341 124.686 48.7662 127.508 45.3789 130.412C36.8299 137.509 32.5554 145.413 32.5554 154.123C32.5554 159.768 34.8943 164.688 39.572 168.882C44.4111 172.914 49.8953 174.931 56.0247 174.931C62.3154 174.931 68.4449 173.963 74.413 172.027C80.3811 169.93 86.0267 166.785 91.3496 162.591C98.4468 156.784 105.625 150.01 112.883 142.267C114.012 141.138 115.141 140.574 116.271 140.574C117.4 140.574 118.367 141.138 119.174 142.267C119.98 143.396 120.384 144.606 120.384 145.897C120.384 149.123 117.48 154.042 111.673 160.656C106.028 167.269 98.9307 173.963 90.3818 180.738C81.9941 187.512 72.1548 193.48 60.8637 198.642C49.5727 203.804 39.4914 206.384 30.6198 206.384C21.7483 206.384 14.5704 204.126 9.08617 199.61C3.60195 195.093 0.859833 189.125 0.859833 181.705C0.859833 174.124 2.95674 166.785 7.15056 159.688C11.3444 152.591 15.8608 146.784 20.6998 142.267C25.7002 137.751 30.2972 133.315 34.4911 128.96C38.6849 124.605 40.7818 121.056 40.7818 118.314C40.7818 115.411 38.7655 112.669 34.733 110.088C30.7005 107.346 26.2647 105.168 21.4257 103.555C16.5867 101.781 12.1509 98.958 8.11837 95.0868C4.08585 91.2156 2.06959 86.5379 2.06959 81.0536C2.06959 71.5369 7.15057 61.6975 17.3125 51.5356C27.4745 41.2123 39.4107 32.5021 53.1213 25.4049C66.8319 18.1463 80.1392 12.1782 93.0432 7.50047C105.947 2.82275 115.222 0.483887 120.868 0.483887C126.674 0.483887 131.03 1.77429 133.933 4.3551C136.998 6.93592 138.53 10.1619 138.53 14.0332C138.53 19.6787 134.336 25.0823 125.949 30.2439C117.561 35.2442 111.835 37.7444 108.77 37.7444C105.867 37.5831 104.415 36.9379 104.415 35.8088Z" fill="gold"/>
</svg>
